<?xml version="1.0" encoding="utf-8" standalone="no"?>
<!DOCTYPE svg PUBLIC "-//W3C//DTD SVG 1.1//EN"
  "http://www.w3.org/Graphics/SVG/1.1/DTD/svg11.dtd">
<!-- Created with matplotlib (http://matplotlib.org/) -->
<svg height="345pt" version="1.1" viewBox="0 0 460 345" width="460pt" xmlns="http://www.w3.org/2000/svg" xmlns:xlink="http://www.w3.org/1999/xlink">
 <defs>
  <style type="text/css">
*{stroke-linecap:butt;stroke-linejoin:round;}
  </style>
 </defs>
 <g id="figure_1">
  <g id="patch_1">
   <path d="M 0 345.6 
L 460.8 345.6 
L 460.8 0 
L 0 0 
z
" style="fill:#ffffff;"/>
  </g>
  <g id="axes_1">
   <g id="patch_2">
    <path d="M 57.6 307.584 
L 414.72 307.584 
L 414.72 41.472 
L 57.6 41.472 
z
" style="fill:#ffffff;"/>
   </g>
   <g id="PathCollection_1">
    <defs>
     <path d="M -2.738613 0 
L 2.738613 0 
M 0 2.738613 
L 0 -2.738613 
" id="m4def89fa3b" style="stroke:#000000;stroke-opacity:0.5;stroke-width:1.5;"/>
    </defs>
    <g clip-path="url(#pe226e46e68)">
     <use style="fill-opacity:0.5;stroke:#000000;stroke-opacity:0.5;stroke-width:1.5;" x="285.531394" xlink:href="#m4def89fa3b" y="79.500824"/>
    </g>
   </g>
   <g id="PathCollection_2">
    <defs>
     <path d="M 0 -2.738613 
L -2.604576 -0.846278 
L -1.609716 2.215584 
L 1.609716 2.215584 
L 2.604576 -0.846278 
z
" id="m84baef2895" style="stroke:#bf00bf;stroke-opacity:0.5;"/>
    </defs>
    <g clip-path="url(#pe226e46e68)">
     <use style="fill:#bf00bf;fill-opacity:0.5;stroke:#bf00bf;stroke-opacity:0.5;" x="133.378275" xlink:href="#m84baef2895" y="98.590258"/>
    </g>
   </g>
   <g id="PathCollection_3">
    <defs>
     <path d="M 0 1.369306 
C 0.363144 1.369306 0.711464 1.225028 0.968246 0.968246 
C 1.225028 0.711464 1.369306 0.363144 1.369306 0 
C 1.369306 -0.363144 1.225028 -0.711464 0.968246 -0.968246 
C 0.711464 -1.225028 0.363144 -1.369306 0 -1.369306 
C -0.363144 -1.369306 -0.711464 -1.225028 -0.968246 -0.968246 
C -1.225028 -0.711464 -1.369306 -0.363144 -1.369306 0 
C -1.369306 0.363144 -1.225028 0.711464 -0.968246 0.968246 
C -0.711464 1.225028 -0.363144 1.369306 0 1.369306 
z
" id="m9fedacb93a" style="stroke:#ffa500;stroke-opacity:0.5;"/>
    </defs>
    <g clip-path="url(#pe226e46e68)">
     <use style="fill:#ffa500;fill-opacity:0.5;stroke:#ffa500;stroke-opacity:0.5;" x="380.142987" xlink:href="#m9fedacb93a" y="200.064529"/>
    </g>
   </g>
   <g id="PathCollection_4">
    <g clip-path="url(#pe226e46e68)">
     <use style="fill-opacity:0.5;stroke:#000000;stroke-opacity:0.5;stroke-width:1.5;" x="76.059741" xlink:href="#m4def89fa3b" y="249.086018"/>
    </g>
   </g>
   <g id="PathCollection_5">
    <g clip-path="url(#pe226e46e68)">
     <use style="fill-opacity:0.5;stroke:#000000;stroke-opacity:0.5;stroke-width:1.5;" x="265.103505" xlink:href="#m4def89fa3b" y="109.683469"/>
    </g>
   </g>
   <g id="PathCollection_6">
    <defs>
     <path d="M 0 2.738613 
C 0.726289 2.738613 1.422928 2.450055 1.936492 1.936492 
C 2.450055 1.422928 2.738613 0.726289 2.738613 0 
C 2.738613 -0.726289 2.450055 -1.422928 1.936492 -1.936492 
C 1.422928 -2.450055 0.726289 -2.738613 0 -2.738613 
C -0.726289 -2.738613 -1.422928 -2.450055 -1.936492 -1.936492 
C -2.450055 -1.422928 -2.738613 -0.726289 -2.738613 0 
C -2.738613 0.726289 -2.450055 1.422928 -1.936492 1.936492 
C -1.422928 2.450055 -0.726289 2.738613 0 2.738613 
z
" id="m0b29a0a9d2" style="stroke:#0000ff;stroke-opacity:0.5;"/>
    </defs>
    <g clip-path="url(#pe226e46e68)">
     <use style="fill:#0000ff;fill-opacity:0.5;stroke:#0000ff;stroke-opacity:0.5;" x="129.978731" xlink:href="#m0b29a0a9d2" y="140.562994"/>
    </g>
   </g>
   <g id="PathCollection_7">
    <g clip-path="url(#pe226e46e68)">
     <use style="fill-opacity:0.5;stroke:#000000;stroke-opacity:0.5;stroke-width:1.5;" x="249.570273" xlink:href="#m4def89fa3b" y="247.758009"/>
    </g>
   </g>
   <g id="PathCollection_8">
    <defs>
     <path d="M 0 -2.738613 
L -0.614857 -0.846278 
L -2.604576 -0.846278 
L -0.994859 0.323249 
L -1.609716 2.215584 
L -0 1.046057 
L 1.609716 2.215584 
L 0.994859 0.323249 
L 2.604576 -0.846278 
L 0.614857 -0.846278 
z
" id="m2b45108aab" style="stroke:#ff0000;stroke-opacity:0.5;"/>
    </defs>
    <g clip-path="url(#pe226e46e68)">
     <use style="fill:#ff0000;fill-opacity:0.5;stroke:#ff0000;stroke-opacity:0.5;" x="132.383755" xlink:href="#m2b45108aab" y="212.769004"/>
    </g>
   </g>
   <g id="PathCollection_9">
    <defs>
     <path d="M -2.738613 -0 
L 2.738613 2.738613 
L 2.738613 -2.738613 
z
" id="m1f5563c4e1" style="stroke:#a0522d;stroke-opacity:0.5;"/>
    </defs>
    <g clip-path="url(#pe226e46e68)">
     <use style="fill:#a0522d;fill-opacity:0.5;stroke:#a0522d;stroke-opacity:0.5;" x="315.582268" xlink:href="#m1f5563c4e1" y="139.160784"/>
    </g>
   </g>
   <g id="PathCollection_10">
    <g clip-path="url(#pe226e46e68)">
     <use style="fill:#bf00bf;fill-opacity:0.5;stroke:#bf00bf;stroke-opacity:0.5;" x="142.223006" xlink:href="#m84baef2895" y="103.761346"/>
    </g>
   </g>
   <g id="PathCollection_11">
    <defs>
     <path d="M 0 -2.738613 
L -2.738613 2.738613 
L 2.738613 2.738613 
z
" id="m571af0b9a1" style="stroke:#008000;stroke-opacity:0.5;"/>
    </defs>
    <g clip-path="url(#pe226e46e68)">
     <use style="fill:#008000;fill-opacity:0.5;stroke:#008000;stroke-opacity:0.5;" x="330.365459" xlink:href="#m571af0b9a1" y="263.228407"/>
    </g>
   </g>
   <g id="PathCollection_12">
    <g clip-path="url(#pe226e46e68)">
     <use style="fill:#ff0000;fill-opacity:0.5;stroke:#ff0000;stroke-opacity:0.5;" x="153.223731" xlink:href="#m2b45108aab" y="243.259274"/>
    </g>
   </g>
   <g id="PathCollection_13">
    <g clip-path="url(#pe226e46e68)">
     <use style="fill-opacity:0.5;stroke:#000000;stroke-opacity:0.5;stroke-width:1.5;" x="361.395645" xlink:href="#m4def89fa3b" y="108.334259"/>
    </g>
   </g>
   <g id="PathCollection_14">
    <defs>
     <path d="M -2.738613 2.738613 
L 2.738613 2.738613 
L 2.738613 -2.738613 
L -2.738613 -2.738613 
z
" id="m41316a9c4f" style="stroke:#000000;stroke-opacity:0.5;"/>
    </defs>
    <g clip-path="url(#pe226e46e68)">
     <use style="fill-opacity:0.5;stroke:#000000;stroke-opacity:0.5;" x="172.969491" xlink:href="#m41316a9c4f" y="109.255916"/>
    </g>
   </g>
   <g id="PathCollection_15">
    <g clip-path="url(#pe226e46e68)">
     <use style="fill-opacity:0.5;stroke:#000000;stroke-opacity:0.5;stroke-width:1.5;" x="257.116962" xlink:href="#m4def89fa3b" y="185.160971"/>
    </g>
   </g>
   <g id="PathCollection_16">
    <g clip-path="url(#pe226e46e68)">
     <use style="fill-opacity:0.5;stroke:#000000;stroke-opacity:0.5;stroke-width:1.5;" x="224.483069" xlink:href="#m4def89fa3b" y="262.4271"/>
    </g>
   </g>
   <g id="PathCollection_17">
    <g clip-path="url(#pe226e46e68)">
     <use style="fill:#a0522d;fill-opacity:0.5;stroke:#a0522d;stroke-opacity:0.5;" x="320.43041" xlink:href="#m1f5563c4e1" y="139.622577"/>
    </g>
   </g>
   <g id="PathCollection_18">
    <g clip-path="url(#pe226e46e68)">
     <use style="fill-opacity:0.5;stroke:#000000;stroke-opacity:0.5;stroke-width:1.5;" x="212.645047" xlink:href="#m4def89fa3b" y="100.390439"/>
    </g>
   </g>
   <g id="PathCollection_19">
    <g clip-path="url(#pe226e46e68)">
     <use style="fill:#008000;fill-opacity:0.5;stroke:#008000;stroke-opacity:0.5;" x="323.758441" xlink:href="#m571af0b9a1" y="248.974495"/>
    </g>
   </g>
   <g id="PathCollection_20">
    <g clip-path="url(#pe226e46e68)">
     <use style="fill:#ff0000;fill-opacity:0.5;stroke:#ff0000;stroke-opacity:0.5;" x="141.050522" xlink:href="#m2b45108aab" y="225.176343"/>
    </g>
   </g>
   <g id="PathCollection_21">
    <g clip-path="url(#pe226e46e68)">
     <use style="fill:#a0522d;fill-opacity:0.5;stroke:#a0522d;stroke-opacity:0.5;" x="305.692603" xlink:href="#m1f5563c4e1" y="110.769649"/>
    </g>
   </g>
   <g id="PathCollection_22">
    <g clip-path="url(#pe226e46e68)">
     <use style="fill-opacity:0.5;stroke:#000000;stroke-opacity:0.5;" x="182.998373" xlink:href="#m41316a9c4f" y="117.884996"/>
    </g>
   </g>
   <g id="PathCollection_23">
    <g clip-path="url(#pe226e46e68)">
     <use style="fill:#008000;fill-opacity:0.5;stroke:#008000;stroke-opacity:0.5;" x="301.337406" xlink:href="#m571af0b9a1" y="216.7959"/>
    </g>
   </g>
   <g id="PathCollection_24">
    <g clip-path="url(#pe226e46e68)">
     <use style="fill:#ff0000;fill-opacity:0.5;stroke:#ff0000;stroke-opacity:0.5;" x="134.875798" xlink:href="#m2b45108aab" y="236.139315"/>
    </g>
   </g>
   <g id="PathCollection_25">
    <g clip-path="url(#pe226e46e68)">
     <use style="fill:#a0522d;fill-opacity:0.5;stroke:#a0522d;stroke-opacity:0.5;" x="289.07697" xlink:href="#m1f5563c4e1" y="88.46667"/>
    </g>
   </g>
   <g id="PathCollection_26">
    <g clip-path="url(#pe226e46e68)">
     <use style="fill-opacity:0.5;stroke:#000000;stroke-opacity:0.5;" x="185.914823" xlink:href="#m41316a9c4f" y="125.069599"/>
    </g>
   </g>
   <g id="PathCollection_27">
    <g clip-path="url(#pe226e46e68)">
     <use style="fill:#008000;fill-opacity:0.5;stroke:#008000;stroke-opacity:0.5;" x="313.326966" xlink:href="#m571af0b9a1" y="220.085665"/>
    </g>
   </g>
   <g id="PathCollection_28">
    <g clip-path="url(#pe226e46e68)">
     <use style="fill:#ff0000;fill-opacity:0.5;stroke:#ff0000;stroke-opacity:0.5;" x="116.904032" xlink:href="#m2b45108aab" y="245.647896"/>
    </g>
   </g>
   <g id="PathCollection_29">
    <g clip-path="url(#pe226e46e68)">
     <use style="fill:#a0522d;fill-opacity:0.5;stroke:#a0522d;stroke-opacity:0.5;" x="303.350164" xlink:href="#m1f5563c4e1" y="99.405381"/>
    </g>
   </g>
   <g id="PathCollection_30">
    <g clip-path="url(#pe226e46e68)">
     <use style="fill-opacity:0.5;stroke:#000000;stroke-opacity:0.5;stroke-width:1.5;" x="156.432633" xlink:href="#m4def89fa3b" y="157.117201"/>
    </g>
   </g>
   <g id="PathCollection_31">
    <g clip-path="url(#pe226e46e68)">
     <use style="fill-opacity:0.5;stroke:#000000;stroke-opacity:0.5;stroke-width:1.5;" x="264.119877" xlink:href="#m4def89fa3b" y="263.754533"/>
    </g>
   </g>
   <g id="PathCollection_32">
    <g clip-path="url(#pe226e46e68)">
     <use style="fill:#ff0000;fill-opacity:0.5;stroke:#ff0000;stroke-opacity:0.5;" x="126.809142" xlink:href="#m2b45108aab" y="224.669799"/>
    </g>
   </g>
   <g id="PathCollection_33">
    <g clip-path="url(#pe226e46e68)">
     <use style="fill:#a0522d;fill-opacity:0.5;stroke:#a0522d;stroke-opacity:0.5;" x="297.056668" xlink:href="#m1f5563c4e1" y="113.870453"/>
    </g>
   </g>
   <g id="PathCollection_34">
    <g clip-path="url(#pe226e46e68)">
     <use style="fill:#0000ff;fill-opacity:0.5;stroke:#0000ff;stroke-opacity:0.5;" x="141.241373" xlink:href="#m0b29a0a9d2" y="135.048755"/>
    </g>
   </g>
   <g id="PathCollection_35">
    <g clip-path="url(#pe226e46e68)">
     <use style="fill:#ffa500;fill-opacity:0.5;stroke:#ffa500;stroke-opacity:0.5;" x="366.289945" xlink:href="#m9fedacb93a" y="192.762172"/>
    </g>
   </g>
   <g id="PathCollection_36">
    <g clip-path="url(#pe226e46e68)">
     <use style="fill:#ff0000;fill-opacity:0.5;stroke:#ff0000;stroke-opacity:0.5;" x="159.399556" xlink:href="#m2b45108aab" y="252.090245"/>
    </g>
   </g>
   <g id="PathCollection_37">
    <g clip-path="url(#pe226e46e68)">
     <use style="fill-opacity:0.5;stroke:#000000;stroke-opacity:0.5;stroke-width:1.5;" x="292.377652" xlink:href="#m4def89fa3b" y="59.42569"/>
    </g>
   </g>
   <g id="PathCollection_38">
    <g clip-path="url(#pe226e46e68)">
     <use style="fill-opacity:0.5;stroke:#000000;stroke-opacity:0.5;" x="212.389289" xlink:href="#m41316a9c4f" y="126.060401"/>
    </g>
   </g>
   <g id="PathCollection_39">
    <g clip-path="url(#pe226e46e68)">
     <use style="fill:#008000;fill-opacity:0.5;stroke:#008000;stroke-opacity:0.5;" x="320.574835" xlink:href="#m571af0b9a1" y="233.484138"/>
    </g>
   </g>
   <g id="PathCollection_40">
    <g clip-path="url(#pe226e46e68)">
     <use style="fill:#ff0000;fill-opacity:0.5;stroke:#ff0000;stroke-opacity:0.5;" x="121.94478" xlink:href="#m2b45108aab" y="246.684601"/>
    </g>
   </g>
   <g id="PathCollection_41">
    <g clip-path="url(#pe226e46e68)">
     <use style="fill:#a0522d;fill-opacity:0.5;stroke:#a0522d;stroke-opacity:0.5;" x="298.557822" xlink:href="#m1f5563c4e1" y="88.351909"/>
    </g>
   </g>
   <g id="PathCollection_42">
    <g clip-path="url(#pe226e46e68)">
     <use style="fill-opacity:0.5;stroke:#000000;stroke-opacity:0.5;" x="155.539148" xlink:href="#m41316a9c4f" y="109.687882"/>
    </g>
   </g>
   <g id="PathCollection_43">
    <g clip-path="url(#pe226e46e68)">
     <use style="fill:#008000;fill-opacity:0.5;stroke:#008000;stroke-opacity:0.5;" x="336.363021" xlink:href="#m571af0b9a1" y="245.153881"/>
    </g>
   </g>
   <g id="PathCollection_44">
    <g clip-path="url(#pe226e46e68)">
     <use style="fill-opacity:0.5;stroke:#000000;stroke-opacity:0.5;stroke-width:1.5;" x="173.024785" xlink:href="#m4def89fa3b" y="268.389827"/>
    </g>
   </g>
   <g id="PathCollection_45">
    <g clip-path="url(#pe226e46e68)">
     <use style="fill:#a0522d;fill-opacity:0.5;stroke:#a0522d;stroke-opacity:0.5;" x="305.487289" xlink:href="#m1f5563c4e1" y="104.013554"/>
    </g>
   </g>
   <g id="PathCollection_46">
    <g clip-path="url(#pe226e46e68)">
     <use style="fill:#bf00bf;fill-opacity:0.5;stroke:#bf00bf;stroke-opacity:0.5;" x="138.403876" xlink:href="#m84baef2895" y="101.943757"/>
    </g>
   </g>
   <g id="PathCollection_47">
    <g clip-path="url(#pe226e46e68)">
     <use style="fill:#008000;fill-opacity:0.5;stroke:#008000;stroke-opacity:0.5;" x="328.160481" xlink:href="#m571af0b9a1" y="259.134585"/>
    </g>
   </g>
   <g id="PathCollection_48">
    <g clip-path="url(#pe226e46e68)">
     <use style="fill:#ff0000;fill-opacity:0.5;stroke:#ff0000;stroke-opacity:0.5;" x="124.200112" xlink:href="#m2b45108aab" y="228.464268"/>
    </g>
   </g>
   <g id="PathCollection_49">
    <g clip-path="url(#pe226e46e68)">
     <use style="fill:#a0522d;fill-opacity:0.5;stroke:#a0522d;stroke-opacity:0.5;" x="341.571587" xlink:href="#m1f5563c4e1" y="112.904622"/>
    </g>
   </g>
   <g id="PathCollection_50">
    <g clip-path="url(#pe226e46e68)">
     <use style="fill-opacity:0.5;stroke:#000000;stroke-opacity:0.5;stroke-width:1.5;" x="184.472177" xlink:href="#m4def89fa3b" y="80.478675"/>
    </g>
   </g>
   <g id="PathCollection_51">
    <g clip-path="url(#pe226e46e68)">
     <use style="fill:#008000;fill-opacity:0.5;stroke:#008000;stroke-opacity:0.5;" x="299.461692" xlink:href="#m571af0b9a1" y="240.694088"/>
    </g>
   </g>
   <g id="PathCollection_52">
    <g clip-path="url(#pe226e46e68)">
     <use style="fill:#ff0000;fill-opacity:0.5;stroke:#ff0000;stroke-opacity:0.5;" x="107.483176" xlink:href="#m2b45108aab" y="261.85966"/>
    </g>
   </g>
   <g id="PathCollection_53">
    <g clip-path="url(#pe226e46e68)">
     <use style="fill-opacity:0.5;stroke:#000000;stroke-opacity:0.5;stroke-width:1.5;" x="349.013521" xlink:href="#m4def89fa3b" y="60.637209"/>
    </g>
   </g>
   <g id="PathCollection_54">
    <g clip-path="url(#pe226e46e68)">
     <use style="fill-opacity:0.5;stroke:#000000;stroke-opacity:0.5;stroke-width:1.5;" x="93.714564" xlink:href="#m4def89fa3b" y="100.048862"/>
    </g>
   </g>
   <g id="PathCollection_55">
    <g clip-path="url(#pe226e46e68)">
     <use style="fill:#008000;fill-opacity:0.5;stroke:#008000;stroke-opacity:0.5;" x="314.252651" xlink:href="#m571af0b9a1" y="246.837616"/>
    </g>
   </g>
   <g id="PathCollection_56">
    <g clip-path="url(#pe226e46e68)">
     <use style="fill:#ff0000;fill-opacity:0.5;stroke:#ff0000;stroke-opacity:0.5;" x="116.843262" xlink:href="#m2b45108aab" y="240.570678"/>
    </g>
   </g>
   <g id="PathCollection_57">
    <g clip-path="url(#pe226e46e68)">
     <use style="fill:#a0522d;fill-opacity:0.5;stroke:#a0522d;stroke-opacity:0.5;" x="310.367304" xlink:href="#m1f5563c4e1" y="130.980767"/>
    </g>
   </g>
   <g id="PathCollection_58">
    <g clip-path="url(#pe226e46e68)">
     <use style="fill-opacity:0.5;stroke:#000000;stroke-opacity:0.5;" x="161.353449" xlink:href="#m41316a9c4f" y="115.935415"/>
    </g>
   </g>
   <g id="PathCollection_59">
    <g clip-path="url(#pe226e46e68)">
     <use style="fill-opacity:0.5;stroke:#000000;stroke-opacity:0.5;stroke-width:1.5;" x="291.6438" xlink:href="#m4def89fa3b" y="244.965828"/>
    </g>
   </g>
   <g id="PathCollection_60">
    <g clip-path="url(#pe226e46e68)">
     <use style="fill:#ff0000;fill-opacity:0.5;stroke:#ff0000;stroke-opacity:0.5;" x="141.785564" xlink:href="#m2b45108aab" y="253.750696"/>
    </g>
   </g>
   <g id="PathCollection_61">
    <g clip-path="url(#pe226e46e68)">
     <use style="fill:#a0522d;fill-opacity:0.5;stroke:#a0522d;stroke-opacity:0.5;" x="322.291987" xlink:href="#m1f5563c4e1" y="119.329097"/>
    </g>
   </g>
   <g id="PathCollection_62">
    <g clip-path="url(#pe226e46e68)">
     <use style="fill-opacity:0.5;stroke:#000000;stroke-opacity:0.5;" x="159.898839" xlink:href="#m41316a9c4f" y="110.562703"/>
    </g>
   </g>
   <g id="PathCollection_63">
    <g clip-path="url(#pe226e46e68)">
     <use style="fill:#008000;fill-opacity:0.5;stroke:#008000;stroke-opacity:0.5;" x="340.054481" xlink:href="#m571af0b9a1" y="262.067472"/>
    </g>
   </g>
   <g id="PathCollection_64">
    <g clip-path="url(#pe226e46e68)">
     <use style="fill:#ff0000;fill-opacity:0.5;stroke:#ff0000;stroke-opacity:0.5;" x="159.803905" xlink:href="#m2b45108aab" y="219.14864"/>
    </g>
   </g>
   <g id="PathCollection_65">
    <g clip-path="url(#pe226e46e68)">
     <use style="fill:#a0522d;fill-opacity:0.5;stroke:#a0522d;stroke-opacity:0.5;" x="335.348532" xlink:href="#m1f5563c4e1" y="86.19873"/>
    </g>
   </g>
   <g id="PathCollection_66">
    <g clip-path="url(#pe226e46e68)">
     <use style="fill-opacity:0.5;stroke:#000000;stroke-opacity:0.5;" x="188.043883" xlink:href="#m41316a9c4f" y="95.288983"/>
    </g>
   </g>
   <g id="PathCollection_67">
    <g clip-path="url(#pe226e46e68)">
     <use style="fill:#008000;fill-opacity:0.5;stroke:#008000;stroke-opacity:0.5;" x="304.031102" xlink:href="#m571af0b9a1" y="231.28623"/>
    </g>
   </g>
   <g id="PathCollection_68">
    <g clip-path="url(#pe226e46e68)">
     <use style="fill:#ff0000;fill-opacity:0.5;stroke:#ff0000;stroke-opacity:0.5;" x="157.259425" xlink:href="#m2b45108aab" y="243.344519"/>
    </g>
   </g>
   <g id="PathCollection_69">
    <g clip-path="url(#pe226e46e68)">
     <use style="fill:#a0522d;fill-opacity:0.5;stroke:#a0522d;stroke-opacity:0.5;" x="305.244715" xlink:href="#m1f5563c4e1" y="104.563008"/>
    </g>
   </g>
   <g id="PathCollection_70">
    <g clip-path="url(#pe226e46e68)">
     <use style="fill-opacity:0.5;stroke:#000000;stroke-opacity:0.5;" x="185.993479" xlink:href="#m41316a9c4f" y="109.337279"/>
    </g>
   </g>
   <g id="PathCollection_71">
    <g clip-path="url(#pe226e46e68)">
     <use style="fill:#008000;fill-opacity:0.5;stroke:#008000;stroke-opacity:0.5;" x="326.362917" xlink:href="#m571af0b9a1" y="254.810708"/>
    </g>
   </g>
   <g id="PathCollection_72">
    <g clip-path="url(#pe226e46e68)">
     <use style="fill:#ff0000;fill-opacity:0.5;stroke:#ff0000;stroke-opacity:0.5;" x="99.275249" xlink:href="#m2b45108aab" y="223.000944"/>
    </g>
   </g>
   <g id="PathCollection_73">
    <g clip-path="url(#pe226e46e68)">
     <use style="fill-opacity:0.5;stroke:#000000;stroke-opacity:0.5;stroke-width:1.5;" x="361.039596" xlink:href="#m4def89fa3b" y="149.542811"/>
    </g>
   </g>
   <g id="PathCollection_74">
    <g clip-path="url(#pe226e46e68)">
     <use style="fill-opacity:0.5;stroke:#000000;stroke-opacity:0.5;" x="172.656237" xlink:href="#m41316a9c4f" y="105.922419"/>
    </g>
   </g>
   <g id="PathCollection_75">
    <g clip-path="url(#pe226e46e68)">
     <use style="fill-opacity:0.5;stroke:#000000;stroke-opacity:0.5;stroke-width:1.5;" x="375.106226" xlink:href="#m4def89fa3b" y="231.358546"/>
    </g>
   </g>
   <g id="PathCollection_76">
    <g clip-path="url(#pe226e46e68)">
     <use style="fill:#ff0000;fill-opacity:0.5;stroke:#ff0000;stroke-opacity:0.5;" x="153.033148" xlink:href="#m2b45108aab" y="222.19988"/>
    </g>
   </g>
   <g id="PathCollection_77">
    <g clip-path="url(#pe226e46e68)">
     <use style="fill:#a0522d;fill-opacity:0.5;stroke:#a0522d;stroke-opacity:0.5;" x="321.990965" xlink:href="#m1f5563c4e1" y="107.036719"/>
    </g>
   </g>
   <g id="PathCollection_78">
    <g clip-path="url(#pe226e46e68)">
     <use style="fill-opacity:0.5;stroke:#000000;stroke-opacity:0.5;" x="147.842825" xlink:href="#m41316a9c4f" y="111.355318"/>
    </g>
   </g>
   <g id="PathCollection_79">
    <g clip-path="url(#pe226e46e68)">
     <use style="fill:#ffa500;fill-opacity:0.5;stroke:#ffa500;stroke-opacity:0.5;" x="369.46492" xlink:href="#m9fedacb93a" y="213.663584"/>
    </g>
   </g>
   <g id="PathCollection_80">
    <g clip-path="url(#pe226e46e68)">
     <use style="fill:#ff0000;fill-opacity:0.5;stroke:#ff0000;stroke-opacity:0.5;" x="90.170356" xlink:href="#m2b45108aab" y="239.083888"/>
    </g>
   </g>
   <g id="matplotlib.axis_1">
    <g id="xtick_1">
     <g id="line2d_1">
      <defs>
       <path d="M 0 0 
L 0 3.5 
" id="m46542741ef" style="stroke:#000000;stroke-width:0.8;"/>
      </defs>
      <g>
       <use style="stroke:#000000;stroke-width:0.8;" x="57.6" xlink:href="#m46542741ef" y="307.584"/>
      </g>
     </g>
     <g id="text_1">
      <!-- -6.00 -->
      <defs>
       <path d="M 46.484375 33.203125 
L 1.953125 33.203125 
L 1.953125 39.453125 
L 46.484375 39.453125 
z
" id="SimHei-2d"/>
       <path d="M 3.515625 19.53125 
Q 4.296875 30.859375 6.046875 34.765625 
Q 7.8125 38.671875 11.328125 44.53125 
L 27.34375 69.53125 
L 36.328125 69.53125 
L 19.921875 43.75 
Q 30.46875 46.484375 36.71875 42.96875 
Q 42.96875 39.453125 45.109375 34.953125 
Q 47.265625 30.46875 47.453125 25.1875 
Q 47.65625 19.921875 45.890625 14.84375 
Q 44.140625 9.765625 39.640625 5.65625 
Q 35.15625 1.5625 27.140625 1.171875 
Q 19.140625 0.78125 13.46875 4.09375 
Q 7.8125 7.421875 5.65625 13.46875 
Q 3.515625 19.53125 4.296875 30.859375 
z
M 12.5 16.015625 
Q 19.53125 8.59375 25.390625 8.203125 
Q 31.25 7.8125 35.15625 12.109375 
Q 39.0625 16.40625 39.0625 24.609375 
Q 39.0625 32.8125 34.171875 35.9375 
Q 29.296875 39.0625 23.234375 38.28125 
Q 17.1875 37.5 14.453125 32.421875 
Q 11.71875 27.34375 12.109375 21.671875 
Q 12.5 16.015625 19.53125 8.59375 
z
" id="SimHei-36"/>
       <path d="M 16.796875 1.953125 
L 7.8125 1.953125 
L 7.8125 10.546875 
L 16.796875 10.546875 
z
" id="SimHei-2e"/>
       <path d="M 3.125 29.296875 
Q 3.90625 50 6.4375 56.046875 
Q 8.984375 62.109375 13.671875 66.015625 
Q 18.359375 69.921875 25.1875 69.921875 
Q 32.03125 69.921875 37.109375 64.25 
Q 42.1875 58.59375 43.75 50 
Q 45.3125 41.40625 44.71875 30.265625 
Q 44.140625 19.140625 40.8125 12.109375 
Q 37.5 5.078125 30.859375 2.34375 
Q 24.21875 -0.390625 17.578125 2.921875 
Q 10.9375 6.25 8.203125 11.71875 
Q 5.46875 17.1875 4.296875 23.234375 
Q 3.125 29.296875 3.90625 50 
z
M 12.890625 52.734375 
Q 10.546875 31.25 12.5 22.84375 
Q 14.453125 14.453125 18.9375 10.9375 
Q 23.4375 7.421875 28.125 9.5625 
Q 32.8125 11.71875 34.953125 18.15625 
Q 37.109375 24.609375 37.109375 32.21875 
Q 37.109375 39.84375 36.515625 46.09375 
Q 35.9375 52.34375 33 57.421875 
Q 30.078125 62.5 25.1875 62.6875 
Q 20.3125 62.890625 16.59375 57.8125 
Q 12.890625 52.734375 10.546875 31.25 
z
" id="SimHei-30"/>
      </defs>
      <g transform="translate(45.1 321.459)scale(0.1 -0.1)">
       <use xlink:href="#SimHei-2d"/>
       <use x="50" xlink:href="#SimHei-36"/>
       <use x="100" xlink:href="#SimHei-2e"/>
       <use x="150" xlink:href="#SimHei-30"/>
       <use x="200" xlink:href="#SimHei-30"/>
      </g>
     </g>
    </g>
    <g id="xtick_2">
     <g id="line2d_2">
      <g>
       <use style="stroke:#000000;stroke-width:0.8;" x="97.28" xlink:href="#m46542741ef" y="307.584"/>
      </g>
     </g>
     <g id="text_2">
      <!-- -4.67 -->
      <defs>
       <path d="M 31.25 17.1875 
L 1.171875 17.1875 
L 1.171875 23.828125 
L 32.8125 69.53125 
L 38.671875 69.53125 
L 38.671875 23.828125 
L 48.046875 23.828125 
L 48.046875 17.1875 
L 38.671875 17.1875 
L 38.671875 2.34375 
L 31.25 2.34375 
z
M 31.25 23.828125 
L 31.25 54.6875 
L 9.375 23.828125 
z
" id="SimHei-34"/>
       <path d="M 13.28125 2.34375 
Q 20.3125 32.03125 37.890625 61.328125 
L 4.296875 61.328125 
L 4.296875 68.359375 
L 46.09375 68.359375 
L 46.09375 61.71875 
Q 27.734375 32.03125 21.875 2.34375 
L 13.28125 2.34375 
z
" id="SimHei-37"/>
      </defs>
      <g transform="translate(84.78 321.459)scale(0.1 -0.1)">
       <use xlink:href="#SimHei-2d"/>
       <use x="50" xlink:href="#SimHei-34"/>
       <use x="100" xlink:href="#SimHei-2e"/>
       <use x="150" xlink:href="#SimHei-36"/>
       <use x="200" xlink:href="#SimHei-37"/>
      </g>
     </g>
    </g>
    <g id="xtick_3">
     <g id="line2d_3">
      <g>
       <use style="stroke:#000000;stroke-width:0.8;" x="136.96" xlink:href="#m46542741ef" y="307.584"/>
      </g>
     </g>
     <g id="text_3">
      <!-- -3.33 -->
      <defs>
       <path d="M 3.90625 19.140625 
L 10.9375 20.3125 
Q 12.5 15.234375 16.015625 11.90625 
Q 19.53125 8.59375 24.796875 8.78125 
Q 30.078125 8.984375 33.203125 13.078125 
Q 36.328125 17.1875 35.9375 22.453125 
Q 35.546875 27.734375 31.828125 30.65625 
Q 28.125 33.59375 19.921875 34.765625 
L 19.921875 39.84375 
Q 28.125 40.625 31.828125 44.140625 
Q 35.546875 47.65625 35.15625 53.3125 
Q 34.765625 58.984375 30.078125 61.515625 
Q 25.390625 64.0625 20.109375 62.109375 
Q 14.84375 60.15625 11.71875 51.171875 
L 4.6875 52.34375 
Q 7.03125 59.375 11.125 64.0625 
Q 15.234375 68.75 22.265625 69.53125 
Q 29.296875 70.3125 34.5625 67.765625 
Q 39.84375 65.234375 41.984375 59.953125 
Q 44.140625 54.6875 42.578125 48.4375 
Q 41.015625 42.1875 33.59375 37.5 
Q 39.0625 35.15625 41.984375 30.46875 
Q 44.921875 25.78125 43.9375 18.15625 
Q 42.96875 10.546875 37.109375 5.859375 
Q 31.25 1.171875 23.828125 1.359375 
Q 16.40625 1.5625 10.9375 6.046875 
Q 5.46875 10.546875 3.90625 19.140625 
z
" id="SimHei-33"/>
      </defs>
      <g transform="translate(124.46 321.459)scale(0.1 -0.1)">
       <use xlink:href="#SimHei-2d"/>
       <use x="50" xlink:href="#SimHei-33"/>
       <use x="100" xlink:href="#SimHei-2e"/>
       <use x="150" xlink:href="#SimHei-33"/>
       <use x="200" xlink:href="#SimHei-33"/>
      </g>
     </g>
    </g>
    <g id="xtick_4">
     <g id="line2d_4">
      <g>
       <use style="stroke:#000000;stroke-width:0.8;" x="176.64" xlink:href="#m46542741ef" y="307.584"/>
      </g>
     </g>
     <g id="text_4">
      <!-- -2.00 -->
      <defs>
       <path d="M 4.6875 3.90625 
Q 5.078125 9.765625 10.15625 14.453125 
Q 15.234375 19.140625 23.046875 29.09375 
Q 30.859375 39.0625 33.203125 44.53125 
Q 35.546875 50 34.953125 53.90625 
Q 34.375 57.8125 31.25 60.34375 
Q 28.125 62.890625 24.015625 62.5 
Q 19.921875 62.109375 16.203125 59.375 
Q 12.5 56.640625 10.546875 51.171875 
L 3.125 52.34375 
Q 6.25 61.328125 11.125 65.421875 
Q 16.015625 69.53125 22.65625 69.921875 
Q 26.5625 70.3125 29.6875 69.71875 
Q 32.8125 69.140625 36.125 66.984375 
Q 39.453125 64.84375 41.59375 60.546875 
Q 43.75 56.25 43.15625 50.1875 
Q 42.578125 44.140625 37.109375 35.734375 
Q 31.640625 27.34375 16.015625 9.375 
L 44.140625 9.375 
L 44.140625 2.34375 
L 4.6875 2.34375 
z
" id="SimHei-32"/>
      </defs>
      <g transform="translate(164.14 321.459)scale(0.1 -0.1)">
       <use xlink:href="#SimHei-2d"/>
       <use x="50" xlink:href="#SimHei-32"/>
       <use x="100" xlink:href="#SimHei-2e"/>
       <use x="150" xlink:href="#SimHei-30"/>
       <use x="200" xlink:href="#SimHei-30"/>
      </g>
     </g>
    </g>
    <g id="xtick_5">
     <g id="line2d_5">
      <g>
       <use style="stroke:#000000;stroke-width:0.8;" x="216.32" xlink:href="#m46542741ef" y="307.584"/>
      </g>
     </g>
     <g id="text_5">
      <!-- -0.67 -->
      <g transform="translate(203.82 321.459)scale(0.1 -0.1)">
       <use xlink:href="#SimHei-2d"/>
       <use x="50" xlink:href="#SimHei-30"/>
       <use x="100" xlink:href="#SimHei-2e"/>
       <use x="150" xlink:href="#SimHei-36"/>
       <use x="200" xlink:href="#SimHei-37"/>
      </g>
     </g>
    </g>
    <g id="xtick_6">
     <g id="line2d_6">
      <g>
       <use style="stroke:#000000;stroke-width:0.8;" x="256" xlink:href="#m46542741ef" y="307.584"/>
      </g>
     </g>
     <g id="text_6">
      <!-- 0.67 -->
      <g transform="translate(246 321.459)scale(0.1 -0.1)">
       <use xlink:href="#SimHei-30"/>
       <use x="50" xlink:href="#SimHei-2e"/>
       <use x="100" xlink:href="#SimHei-36"/>
       <use x="150" xlink:href="#SimHei-37"/>
      </g>
     </g>
    </g>
    <g id="xtick_7">
     <g id="line2d_7">
      <g>
       <use style="stroke:#000000;stroke-width:0.8;" x="295.68" xlink:href="#m46542741ef" y="307.584"/>
      </g>
     </g>
     <g id="text_7">
      <!-- 2.00 -->
      <g transform="translate(285.68 321.459)scale(0.1 -0.1)">
       <use xlink:href="#SimHei-32"/>
       <use x="50" xlink:href="#SimHei-2e"/>
       <use x="100" xlink:href="#SimHei-30"/>
       <use x="150" xlink:href="#SimHei-30"/>
      </g>
     </g>
    </g>
    <g id="xtick_8">
     <g id="line2d_8">
      <g>
       <use style="stroke:#000000;stroke-width:0.8;" x="335.36" xlink:href="#m46542741ef" y="307.584"/>
      </g>
     </g>
     <g id="text_8">
      <!-- 3.33 -->
      <g transform="translate(325.36 321.459)scale(0.1 -0.1)">
       <use xlink:href="#SimHei-33"/>
       <use x="50" xlink:href="#SimHei-2e"/>
       <use x="100" xlink:href="#SimHei-33"/>
       <use x="150" xlink:href="#SimHei-33"/>
      </g>
     </g>
    </g>
    <g id="xtick_9">
     <g id="line2d_9">
      <g>
       <use style="stroke:#000000;stroke-width:0.8;" x="375.04" xlink:href="#m46542741ef" y="307.584"/>
      </g>
     </g>
     <g id="text_9">
      <!-- 4.67 -->
      <g transform="translate(365.04 321.459)scale(0.1 -0.1)">
       <use xlink:href="#SimHei-34"/>
       <use x="50" xlink:href="#SimHei-2e"/>
       <use x="100" xlink:href="#SimHei-36"/>
       <use x="150" xlink:href="#SimHei-37"/>
      </g>
     </g>
    </g>
    <g id="xtick_10">
     <g id="line2d_10">
      <g>
       <use style="stroke:#000000;stroke-width:0.8;" x="414.72" xlink:href="#m46542741ef" y="307.584"/>
      </g>
     </g>
     <g id="text_10">
      <!-- 6.00 -->
      <g transform="translate(404.72 321.459)scale(0.1 -0.1)">
       <use xlink:href="#SimHei-36"/>
       <use x="50" xlink:href="#SimHei-2e"/>
       <use x="100" xlink:href="#SimHei-30"/>
       <use x="150" xlink:href="#SimHei-30"/>
      </g>
     </g>
    </g>
   </g>
   <g id="matplotlib.axis_2">
    <g id="ytick_1">
     <g id="line2d_11">
      <defs>
       <path d="M 0 0 
L -3.5 0 
" id="mb818f4707d" style="stroke:#000000;stroke-width:0.8;"/>
      </defs>
      <g>
       <use style="stroke:#000000;stroke-width:0.8;" x="57.6" xlink:href="#mb818f4707d" y="307.584"/>
      </g>
     </g>
     <g id="text_11">
      <!-- -6.00 -->
      <g transform="translate(25.6 311.0215)scale(0.1 -0.1)">
       <use xlink:href="#SimHei-2d"/>
       <use x="50" xlink:href="#SimHei-36"/>
       <use x="100" xlink:href="#SimHei-2e"/>
       <use x="150" xlink:href="#SimHei-30"/>
       <use x="200" xlink:href="#SimHei-30"/>
      </g>
     </g>
    </g>
    <g id="ytick_2">
     <g id="line2d_12">
      <g>
       <use style="stroke:#000000;stroke-width:0.8;" x="57.6" xlink:href="#mb818f4707d" y="278.016"/>
      </g>
     </g>
     <g id="text_12">
      <!-- -4.67 -->
      <g transform="translate(25.6 281.4535)scale(0.1 -0.1)">
       <use xlink:href="#SimHei-2d"/>
       <use x="50" xlink:href="#SimHei-34"/>
       <use x="100" xlink:href="#SimHei-2e"/>
       <use x="150" xlink:href="#SimHei-36"/>
       <use x="200" xlink:href="#SimHei-37"/>
      </g>
     </g>
    </g>
    <g id="ytick_3">
     <g id="line2d_13">
      <g>
       <use style="stroke:#000000;stroke-width:0.8;" x="57.6" xlink:href="#mb818f4707d" y="248.448"/>
      </g>
     </g>
     <g id="text_13">
      <!-- -3.33 -->
      <g transform="translate(25.6 251.8855)scale(0.1 -0.1)">
       <use xlink:href="#SimHei-2d"/>
       <use x="50" xlink:href="#SimHei-33"/>
       <use x="100" xlink:href="#SimHei-2e"/>
       <use x="150" xlink:href="#SimHei-33"/>
       <use x="200" xlink:href="#SimHei-33"/>
      </g>
     </g>
    </g>
    <g id="ytick_4">
     <g id="line2d_14">
      <g>
       <use style="stroke:#000000;stroke-width:0.8;" x="57.6" xlink:href="#mb818f4707d" y="218.88"/>
      </g>
     </g>
     <g id="text_14">
      <!-- -2.00 -->
      <g transform="translate(25.6 222.3175)scale(0.1 -0.1)">
       <use xlink:href="#SimHei-2d"/>
       <use x="50" xlink:href="#SimHei-32"/>
       <use x="100" xlink:href="#SimHei-2e"/>
       <use x="150" xlink:href="#SimHei-30"/>
       <use x="200" xlink:href="#SimHei-30"/>
      </g>
     </g>
    </g>
    <g id="ytick_5">
     <g id="line2d_15">
      <g>
       <use style="stroke:#000000;stroke-width:0.8;" x="57.6" xlink:href="#mb818f4707d" y="189.312"/>
      </g>
     </g>
     <g id="text_15">
      <!-- -0.67 -->
      <g transform="translate(25.6 192.7495)scale(0.1 -0.1)">
       <use xlink:href="#SimHei-2d"/>
       <use x="50" xlink:href="#SimHei-30"/>
       <use x="100" xlink:href="#SimHei-2e"/>
       <use x="150" xlink:href="#SimHei-36"/>
       <use x="200" xlink:href="#SimHei-37"/>
      </g>
     </g>
    </g>
    <g id="ytick_6">
     <g id="line2d_16">
      <g>
       <use style="stroke:#000000;stroke-width:0.8;" x="57.6" xlink:href="#mb818f4707d" y="159.744"/>
      </g>
     </g>
     <g id="text_16">
      <!-- 0.67 -->
      <g transform="translate(30.6 163.1815)scale(0.1 -0.1)">
       <use xlink:href="#SimHei-30"/>
       <use x="50" xlink:href="#SimHei-2e"/>
       <use x="100" xlink:href="#SimHei-36"/>
       <use x="150" xlink:href="#SimHei-37"/>
      </g>
     </g>
    </g>
    <g id="ytick_7">
     <g id="line2d_17">
      <g>
       <use style="stroke:#000000;stroke-width:0.8;" x="57.6" xlink:href="#mb818f4707d" y="130.176"/>
      </g>
     </g>
     <g id="text_17">
      <!-- 2.00 -->
      <g transform="translate(30.6 133.6135)scale(0.1 -0.1)">
       <use xlink:href="#SimHei-32"/>
       <use x="50" xlink:href="#SimHei-2e"/>
       <use x="100" xlink:href="#SimHei-30"/>
       <use x="150" xlink:href="#SimHei-30"/>
      </g>
     </g>
    </g>
    <g id="ytick_8">
     <g id="line2d_18">
      <g>
       <use style="stroke:#000000;stroke-width:0.8;" x="57.6" xlink:href="#mb818f4707d" y="100.608"/>
      </g>
     </g>
     <g id="text_18">
      <!-- 3.33 -->
      <g transform="translate(30.6 104.0455)scale(0.1 -0.1)">
       <use xlink:href="#SimHei-33"/>
       <use x="50" xlink:href="#SimHei-2e"/>
       <use x="100" xlink:href="#SimHei-33"/>
       <use x="150" xlink:href="#SimHei-33"/>
      </g>
     </g>
    </g>
    <g id="ytick_9">
     <g id="line2d_19">
      <g>
       <use style="stroke:#000000;stroke-width:0.8;" x="57.6" xlink:href="#mb818f4707d" y="71.04"/>
      </g>
     </g>
     <g id="text_19">
      <!-- 4.67 -->
      <g transform="translate(30.6 74.4775)scale(0.1 -0.1)">
       <use xlink:href="#SimHei-34"/>
       <use x="50" xlink:href="#SimHei-2e"/>
       <use x="100" xlink:href="#SimHei-36"/>
       <use x="150" xlink:href="#SimHei-37"/>
      </g>
     </g>
    </g>
    <g id="ytick_10">
     <g id="line2d_20">
      <g>
       <use style="stroke:#000000;stroke-width:0.8;" x="57.6" xlink:href="#mb818f4707d" y="41.472"/>
      </g>
     </g>
     <g id="text_20">
      <!-- 6.00 -->
      <g transform="translate(30.6 44.9095)scale(0.1 -0.1)">
       <use xlink:href="#SimHei-36"/>
       <use x="50" xlink:href="#SimHei-2e"/>
       <use x="100" xlink:href="#SimHei-30"/>
       <use x="150" xlink:href="#SimHei-30"/>
      </g>
     </g>
    </g>
   </g>
   <g id="patch_3">
    <path d="M 57.6 307.584 
L 57.6 41.472 
" style="fill:none;stroke:#000000;stroke-linecap:square;stroke-linejoin:miter;stroke-width:0.8;"/>
   </g>
   <g id="patch_4">
    <path d="M 414.72 307.584 
L 414.72 41.472 
" style="fill:none;stroke:#000000;stroke-linecap:square;stroke-linejoin:miter;stroke-width:0.8;"/>
   </g>
   <g id="patch_5">
    <path d="M 57.6 307.584 
L 414.72 307.584 
" style="fill:none;stroke:#000000;stroke-linecap:square;stroke-linejoin:miter;stroke-width:0.8;"/>
   </g>
   <g id="patch_6">
    <path d="M 57.6 41.472 
L 414.72 41.472 
" style="fill:none;stroke:#000000;stroke-linecap:square;stroke-linejoin:miter;stroke-width:0.8;"/>
   </g>
  </g>
 </g>
 <defs>
  <clipPath id="pe226e46e68">
   <rect height="266.112" width="357.12" x="57.6" y="41.472"/>
  </clipPath>
 </defs>
</svg>
