<?xml version="1.0" encoding="utf-8" standalone="no"?>
<!DOCTYPE svg PUBLIC "-//W3C//DTD SVG 1.1//EN"
  "http://www.w3.org/Graphics/SVG/1.1/DTD/svg11.dtd">
<!-- Created with matplotlib (http://matplotlib.org/) -->
<svg height="345pt" version="1.1" viewBox="0 0 460 345" width="460pt" xmlns="http://www.w3.org/2000/svg" xmlns:xlink="http://www.w3.org/1999/xlink">
 <defs>
  <style type="text/css">
*{stroke-linecap:butt;stroke-linejoin:round;}
  </style>
 </defs>
 <g id="figure_1">
  <g id="patch_1">
   <path d="M 0 345.6 
L 460.8 345.6 
L 460.8 0 
L 0 0 
z
" style="fill:#ffffff;"/>
  </g>
  <g id="axes_1">
   <g id="patch_2">
    <path d="M 57.6 307.584 
L 414.72 307.584 
L 414.72 41.472 
L 57.6 41.472 
z
" style="fill:#ffffff;"/>
   </g>
   <g id="PathCollection_1">
    <defs>
     <path d="M 0 2.738613 
C 0.726289 2.738613 1.422928 2.450055 1.936492 1.936492 
C 2.450055 1.422928 2.738613 0.726289 2.738613 0 
C 2.738613 -0.726289 2.450055 -1.422928 1.936492 -1.936492 
C 1.422928 -2.450055 0.726289 -2.738613 0 -2.738613 
C -0.726289 -2.738613 -1.422928 -2.450055 -1.936492 -1.936492 
C -2.450055 -1.422928 -2.738613 -0.726289 -2.738613 0 
C -2.738613 0.726289 -2.450055 1.422928 -1.936492 1.936492 
C -1.422928 2.450055 -0.726289 2.738613 0 2.738613 
z
" id="m973283fe2b" style="stroke:#000000;stroke-opacity:0.5;"/>
    </defs>
    <g clip-path="url(#p929078cd5a)">
     <use style="fill-opacity:0.5;stroke:#000000;stroke-opacity:0.5;" x="285.531394" xlink:href="#m973283fe2b" y="79.500824"/>
     <use style="fill-opacity:0.5;stroke:#000000;stroke-opacity:0.5;" x="133.378275" xlink:href="#m973283fe2b" y="98.590258"/>
     <use style="fill-opacity:0.5;stroke:#000000;stroke-opacity:0.5;" x="380.142987" xlink:href="#m973283fe2b" y="200.064529"/>
     <use style="fill-opacity:0.5;stroke:#000000;stroke-opacity:0.5;" x="76.059741" xlink:href="#m973283fe2b" y="249.086018"/>
     <use style="fill-opacity:0.5;stroke:#000000;stroke-opacity:0.5;" x="265.103505" xlink:href="#m973283fe2b" y="109.683469"/>
     <use style="fill-opacity:0.5;stroke:#000000;stroke-opacity:0.5;" x="129.978731" xlink:href="#m973283fe2b" y="140.562994"/>
     <use style="fill-opacity:0.5;stroke:#000000;stroke-opacity:0.5;" x="249.570273" xlink:href="#m973283fe2b" y="247.758009"/>
     <use style="fill-opacity:0.5;stroke:#000000;stroke-opacity:0.5;" x="132.383755" xlink:href="#m973283fe2b" y="212.769004"/>
     <use style="fill-opacity:0.5;stroke:#000000;stroke-opacity:0.5;" x="315.582268" xlink:href="#m973283fe2b" y="139.160784"/>
     <use style="fill-opacity:0.5;stroke:#000000;stroke-opacity:0.5;" x="142.223006" xlink:href="#m973283fe2b" y="103.761346"/>
     <use style="fill-opacity:0.5;stroke:#000000;stroke-opacity:0.5;" x="330.365459" xlink:href="#m973283fe2b" y="263.228407"/>
     <use style="fill-opacity:0.5;stroke:#000000;stroke-opacity:0.5;" x="153.223731" xlink:href="#m973283fe2b" y="243.259274"/>
     <use style="fill-opacity:0.5;stroke:#000000;stroke-opacity:0.5;" x="361.395645" xlink:href="#m973283fe2b" y="108.334259"/>
     <use style="fill-opacity:0.5;stroke:#000000;stroke-opacity:0.5;" x="172.969491" xlink:href="#m973283fe2b" y="109.255916"/>
     <use style="fill-opacity:0.5;stroke:#000000;stroke-opacity:0.5;" x="257.116962" xlink:href="#m973283fe2b" y="185.160971"/>
     <use style="fill-opacity:0.5;stroke:#000000;stroke-opacity:0.5;" x="224.483069" xlink:href="#m973283fe2b" y="262.4271"/>
     <use style="fill-opacity:0.5;stroke:#000000;stroke-opacity:0.5;" x="320.43041" xlink:href="#m973283fe2b" y="139.622577"/>
     <use style="fill-opacity:0.5;stroke:#000000;stroke-opacity:0.5;" x="212.645047" xlink:href="#m973283fe2b" y="100.390439"/>
     <use style="fill-opacity:0.5;stroke:#000000;stroke-opacity:0.5;" x="323.758441" xlink:href="#m973283fe2b" y="248.974495"/>
     <use style="fill-opacity:0.5;stroke:#000000;stroke-opacity:0.5;" x="141.050522" xlink:href="#m973283fe2b" y="225.176343"/>
     <use style="fill-opacity:0.5;stroke:#000000;stroke-opacity:0.5;" x="305.692603" xlink:href="#m973283fe2b" y="110.769649"/>
     <use style="fill-opacity:0.5;stroke:#000000;stroke-opacity:0.5;" x="182.998373" xlink:href="#m973283fe2b" y="117.884996"/>
     <use style="fill-opacity:0.5;stroke:#000000;stroke-opacity:0.5;" x="301.337406" xlink:href="#m973283fe2b" y="216.7959"/>
     <use style="fill-opacity:0.5;stroke:#000000;stroke-opacity:0.5;" x="134.875798" xlink:href="#m973283fe2b" y="236.139315"/>
     <use style="fill-opacity:0.5;stroke:#000000;stroke-opacity:0.5;" x="289.07697" xlink:href="#m973283fe2b" y="88.46667"/>
     <use style="fill-opacity:0.5;stroke:#000000;stroke-opacity:0.5;" x="185.914823" xlink:href="#m973283fe2b" y="125.069599"/>
     <use style="fill-opacity:0.5;stroke:#000000;stroke-opacity:0.5;" x="313.326966" xlink:href="#m973283fe2b" y="220.085665"/>
     <use style="fill-opacity:0.5;stroke:#000000;stroke-opacity:0.5;" x="116.904032" xlink:href="#m973283fe2b" y="245.647896"/>
     <use style="fill-opacity:0.5;stroke:#000000;stroke-opacity:0.5;" x="303.350164" xlink:href="#m973283fe2b" y="99.405381"/>
     <use style="fill-opacity:0.5;stroke:#000000;stroke-opacity:0.5;" x="156.432633" xlink:href="#m973283fe2b" y="157.117201"/>
     <use style="fill-opacity:0.5;stroke:#000000;stroke-opacity:0.5;" x="264.119877" xlink:href="#m973283fe2b" y="263.754533"/>
     <use style="fill-opacity:0.5;stroke:#000000;stroke-opacity:0.5;" x="126.809142" xlink:href="#m973283fe2b" y="224.669799"/>
     <use style="fill-opacity:0.5;stroke:#000000;stroke-opacity:0.5;" x="297.056668" xlink:href="#m973283fe2b" y="113.870453"/>
     <use style="fill-opacity:0.5;stroke:#000000;stroke-opacity:0.5;" x="141.241373" xlink:href="#m973283fe2b" y="135.048755"/>
     <use style="fill-opacity:0.5;stroke:#000000;stroke-opacity:0.5;" x="366.289945" xlink:href="#m973283fe2b" y="192.762172"/>
     <use style="fill-opacity:0.5;stroke:#000000;stroke-opacity:0.5;" x="159.399556" xlink:href="#m973283fe2b" y="252.090245"/>
     <use style="fill-opacity:0.5;stroke:#000000;stroke-opacity:0.5;" x="292.377652" xlink:href="#m973283fe2b" y="59.42569"/>
     <use style="fill-opacity:0.5;stroke:#000000;stroke-opacity:0.5;" x="212.389289" xlink:href="#m973283fe2b" y="126.060401"/>
     <use style="fill-opacity:0.5;stroke:#000000;stroke-opacity:0.5;" x="320.574835" xlink:href="#m973283fe2b" y="233.484138"/>
     <use style="fill-opacity:0.5;stroke:#000000;stroke-opacity:0.5;" x="121.94478" xlink:href="#m973283fe2b" y="246.684601"/>
     <use style="fill-opacity:0.5;stroke:#000000;stroke-opacity:0.5;" x="298.557822" xlink:href="#m973283fe2b" y="88.351909"/>
     <use style="fill-opacity:0.5;stroke:#000000;stroke-opacity:0.5;" x="155.539148" xlink:href="#m973283fe2b" y="109.687882"/>
     <use style="fill-opacity:0.5;stroke:#000000;stroke-opacity:0.5;" x="336.363021" xlink:href="#m973283fe2b" y="245.153881"/>
     <use style="fill-opacity:0.5;stroke:#000000;stroke-opacity:0.5;" x="173.024785" xlink:href="#m973283fe2b" y="268.389827"/>
     <use style="fill-opacity:0.5;stroke:#000000;stroke-opacity:0.5;" x="305.487289" xlink:href="#m973283fe2b" y="104.013554"/>
     <use style="fill-opacity:0.5;stroke:#000000;stroke-opacity:0.5;" x="138.403876" xlink:href="#m973283fe2b" y="101.943757"/>
     <use style="fill-opacity:0.5;stroke:#000000;stroke-opacity:0.5;" x="328.160481" xlink:href="#m973283fe2b" y="259.134585"/>
     <use style="fill-opacity:0.5;stroke:#000000;stroke-opacity:0.5;" x="124.200112" xlink:href="#m973283fe2b" y="228.464268"/>
     <use style="fill-opacity:0.5;stroke:#000000;stroke-opacity:0.5;" x="341.571587" xlink:href="#m973283fe2b" y="112.904622"/>
     <use style="fill-opacity:0.5;stroke:#000000;stroke-opacity:0.5;" x="184.472177" xlink:href="#m973283fe2b" y="80.478675"/>
     <use style="fill-opacity:0.5;stroke:#000000;stroke-opacity:0.5;" x="299.461692" xlink:href="#m973283fe2b" y="240.694088"/>
     <use style="fill-opacity:0.5;stroke:#000000;stroke-opacity:0.5;" x="107.483176" xlink:href="#m973283fe2b" y="261.85966"/>
     <use style="fill-opacity:0.5;stroke:#000000;stroke-opacity:0.5;" x="349.013521" xlink:href="#m973283fe2b" y="60.637209"/>
     <use style="fill-opacity:0.5;stroke:#000000;stroke-opacity:0.5;" x="93.714564" xlink:href="#m973283fe2b" y="100.048862"/>
     <use style="fill-opacity:0.5;stroke:#000000;stroke-opacity:0.5;" x="314.252651" xlink:href="#m973283fe2b" y="246.837616"/>
     <use style="fill-opacity:0.5;stroke:#000000;stroke-opacity:0.5;" x="116.843262" xlink:href="#m973283fe2b" y="240.570678"/>
     <use style="fill-opacity:0.5;stroke:#000000;stroke-opacity:0.5;" x="310.367304" xlink:href="#m973283fe2b" y="130.980767"/>
     <use style="fill-opacity:0.5;stroke:#000000;stroke-opacity:0.5;" x="161.353449" xlink:href="#m973283fe2b" y="115.935415"/>
     <use style="fill-opacity:0.5;stroke:#000000;stroke-opacity:0.5;" x="291.6438" xlink:href="#m973283fe2b" y="244.965828"/>
     <use style="fill-opacity:0.5;stroke:#000000;stroke-opacity:0.5;" x="141.785564" xlink:href="#m973283fe2b" y="253.750696"/>
     <use style="fill-opacity:0.5;stroke:#000000;stroke-opacity:0.5;" x="322.291987" xlink:href="#m973283fe2b" y="119.329097"/>
     <use style="fill-opacity:0.5;stroke:#000000;stroke-opacity:0.5;" x="159.898839" xlink:href="#m973283fe2b" y="110.562703"/>
     <use style="fill-opacity:0.5;stroke:#000000;stroke-opacity:0.5;" x="340.054481" xlink:href="#m973283fe2b" y="262.067472"/>
     <use style="fill-opacity:0.5;stroke:#000000;stroke-opacity:0.5;" x="159.803905" xlink:href="#m973283fe2b" y="219.14864"/>
     <use style="fill-opacity:0.5;stroke:#000000;stroke-opacity:0.5;" x="335.348532" xlink:href="#m973283fe2b" y="86.19873"/>
     <use style="fill-opacity:0.5;stroke:#000000;stroke-opacity:0.5;" x="188.043883" xlink:href="#m973283fe2b" y="95.288983"/>
     <use style="fill-opacity:0.5;stroke:#000000;stroke-opacity:0.5;" x="304.031102" xlink:href="#m973283fe2b" y="231.28623"/>
     <use style="fill-opacity:0.5;stroke:#000000;stroke-opacity:0.5;" x="157.259425" xlink:href="#m973283fe2b" y="243.344519"/>
     <use style="fill-opacity:0.5;stroke:#000000;stroke-opacity:0.5;" x="305.244715" xlink:href="#m973283fe2b" y="104.563008"/>
     <use style="fill-opacity:0.5;stroke:#000000;stroke-opacity:0.5;" x="185.993479" xlink:href="#m973283fe2b" y="109.337279"/>
     <use style="fill-opacity:0.5;stroke:#000000;stroke-opacity:0.5;" x="326.362917" xlink:href="#m973283fe2b" y="254.810708"/>
     <use style="fill-opacity:0.5;stroke:#000000;stroke-opacity:0.5;" x="99.275249" xlink:href="#m973283fe2b" y="223.000944"/>
     <use style="fill-opacity:0.5;stroke:#000000;stroke-opacity:0.5;" x="361.039596" xlink:href="#m973283fe2b" y="149.542811"/>
     <use style="fill-opacity:0.5;stroke:#000000;stroke-opacity:0.5;" x="172.656237" xlink:href="#m973283fe2b" y="105.922419"/>
     <use style="fill-opacity:0.5;stroke:#000000;stroke-opacity:0.5;" x="375.106226" xlink:href="#m973283fe2b" y="231.358546"/>
     <use style="fill-opacity:0.5;stroke:#000000;stroke-opacity:0.5;" x="153.033148" xlink:href="#m973283fe2b" y="222.19988"/>
     <use style="fill-opacity:0.5;stroke:#000000;stroke-opacity:0.5;" x="321.990965" xlink:href="#m973283fe2b" y="107.036719"/>
     <use style="fill-opacity:0.5;stroke:#000000;stroke-opacity:0.5;" x="147.842825" xlink:href="#m973283fe2b" y="111.355318"/>
     <use style="fill-opacity:0.5;stroke:#000000;stroke-opacity:0.5;" x="369.46492" xlink:href="#m973283fe2b" y="213.663584"/>
     <use style="fill-opacity:0.5;stroke:#000000;stroke-opacity:0.5;" x="90.170356" xlink:href="#m973283fe2b" y="239.083888"/>
    </g>
   </g>
   <g id="matplotlib.axis_1">
    <g id="xtick_1">
     <g id="line2d_1">
      <defs>
       <path d="M 0 0 
L 0 3.5 
" id="m5ab4218d97" style="stroke:#000000;stroke-width:0.8;"/>
      </defs>
      <g>
       <use style="stroke:#000000;stroke-width:0.8;" x="57.6" xlink:href="#m5ab4218d97" y="307.584"/>
      </g>
     </g>
     <g id="text_1">
      <!-- −6.00 -->
      <defs>
       <path d="M 10.59375 35.5 
L 73.1875 35.5 
L 73.1875 27.203125 
L 10.59375 27.203125 
z
" id="DejaVuSans-2212"/>
       <path d="M 33.015625 40.375 
Q 26.375 40.375 22.484375 35.828125 
Q 18.609375 31.296875 18.609375 23.390625 
Q 18.609375 15.53125 22.484375 10.953125 
Q 26.375 6.390625 33.015625 6.390625 
Q 39.65625 6.390625 43.53125 10.953125 
Q 47.40625 15.53125 47.40625 23.390625 
Q 47.40625 31.296875 43.53125 35.828125 
Q 39.65625 40.375 33.015625 40.375 
z
M 52.59375 71.296875 
L 52.59375 62.3125 
Q 48.875 64.0625 45.09375 64.984375 
Q 41.3125 65.921875 37.59375 65.921875 
Q 27.828125 65.921875 22.671875 59.328125 
Q 17.53125 52.734375 16.796875 39.40625 
Q 19.671875 43.65625 24.015625 45.921875 
Q 28.375 48.1875 33.59375 48.1875 
Q 44.578125 48.1875 50.953125 41.515625 
Q 57.328125 34.859375 57.328125 23.390625 
Q 57.328125 12.15625 50.6875 5.359375 
Q 44.046875 -1.421875 33.015625 -1.421875 
Q 20.359375 -1.421875 13.671875 8.265625 
Q 6.984375 17.96875 6.984375 36.375 
Q 6.984375 53.65625 15.1875 63.9375 
Q 23.390625 74.21875 37.203125 74.21875 
Q 40.921875 74.21875 44.703125 73.484375 
Q 48.484375 72.75 52.59375 71.296875 
z
" id="DejaVuSans-36"/>
       <path d="M 10.6875 12.40625 
L 21 12.40625 
L 21 0 
L 10.6875 0 
z
" id="DejaVuSans-2e"/>
       <path d="M 31.78125 66.40625 
Q 24.171875 66.40625 20.328125 58.90625 
Q 16.5 51.421875 16.5 36.375 
Q 16.5 21.390625 20.328125 13.890625 
Q 24.171875 6.390625 31.78125 6.390625 
Q 39.453125 6.390625 43.28125 13.890625 
Q 47.125 21.390625 47.125 36.375 
Q 47.125 51.421875 43.28125 58.90625 
Q 39.453125 66.40625 31.78125 66.40625 
z
M 31.78125 74.21875 
Q 44.046875 74.21875 50.515625 64.515625 
Q 56.984375 54.828125 56.984375 36.375 
Q 56.984375 17.96875 50.515625 8.265625 
Q 44.046875 -1.421875 31.78125 -1.421875 
Q 19.53125 -1.421875 13.0625 8.265625 
Q 6.59375 17.96875 6.59375 36.375 
Q 6.59375 54.828125 13.0625 64.515625 
Q 19.53125 74.21875 31.78125 74.21875 
z
" id="DejaVuSans-30"/>
      </defs>
      <g transform="translate(39.212812 323.702125)scale(0.12 -0.12)">
       <use xlink:href="#DejaVuSans-2212"/>
       <use x="83.789062" xlink:href="#DejaVuSans-36"/>
       <use x="147.412109" xlink:href="#DejaVuSans-2e"/>
       <use x="179.199219" xlink:href="#DejaVuSans-30"/>
       <use x="242.822266" xlink:href="#DejaVuSans-30"/>
      </g>
     </g>
    </g>
    <g id="xtick_2">
     <g id="line2d_2">
      <g>
       <use style="stroke:#000000;stroke-width:0.8;" x="97.28" xlink:href="#m5ab4218d97" y="307.584"/>
      </g>
     </g>
     <g id="text_2">
      <!-- −4.67 -->
      <defs>
       <path d="M 37.796875 64.3125 
L 12.890625 25.390625 
L 37.796875 25.390625 
z
M 35.203125 72.90625 
L 47.609375 72.90625 
L 47.609375 25.390625 
L 58.015625 25.390625 
L 58.015625 17.1875 
L 47.609375 17.1875 
L 47.609375 0 
L 37.796875 0 
L 37.796875 17.1875 
L 4.890625 17.1875 
L 4.890625 26.703125 
z
" id="DejaVuSans-34"/>
       <path d="M 8.203125 72.90625 
L 55.078125 72.90625 
L 55.078125 68.703125 
L 28.609375 0 
L 18.3125 0 
L 43.21875 64.59375 
L 8.203125 64.59375 
z
" id="DejaVuSans-37"/>
      </defs>
      <g transform="translate(78.892813 323.702125)scale(0.12 -0.12)">
       <use xlink:href="#DejaVuSans-2212"/>
       <use x="83.789062" xlink:href="#DejaVuSans-34"/>
       <use x="147.412109" xlink:href="#DejaVuSans-2e"/>
       <use x="179.199219" xlink:href="#DejaVuSans-36"/>
       <use x="242.822266" xlink:href="#DejaVuSans-37"/>
      </g>
     </g>
    </g>
    <g id="xtick_3">
     <g id="line2d_3">
      <g>
       <use style="stroke:#000000;stroke-width:0.8;" x="136.96" xlink:href="#m5ab4218d97" y="307.584"/>
      </g>
     </g>
     <g id="text_3">
      <!-- −3.33 -->
      <defs>
       <path d="M 40.578125 39.3125 
Q 47.65625 37.796875 51.625 33 
Q 55.609375 28.21875 55.609375 21.1875 
Q 55.609375 10.40625 48.1875 4.484375 
Q 40.765625 -1.421875 27.09375 -1.421875 
Q 22.515625 -1.421875 17.65625 -0.515625 
Q 12.796875 0.390625 7.625 2.203125 
L 7.625 11.71875 
Q 11.71875 9.328125 16.59375 8.109375 
Q 21.484375 6.890625 26.8125 6.890625 
Q 36.078125 6.890625 40.9375 10.546875 
Q 45.796875 14.203125 45.796875 21.1875 
Q 45.796875 27.640625 41.28125 31.265625 
Q 36.765625 34.90625 28.71875 34.90625 
L 20.21875 34.90625 
L 20.21875 43.015625 
L 29.109375 43.015625 
Q 36.375 43.015625 40.234375 45.921875 
Q 44.09375 48.828125 44.09375 54.296875 
Q 44.09375 59.90625 40.109375 62.90625 
Q 36.140625 65.921875 28.71875 65.921875 
Q 24.65625 65.921875 20.015625 65.03125 
Q 15.375 64.15625 9.8125 62.3125 
L 9.8125 71.09375 
Q 15.4375 72.65625 20.34375 73.4375 
Q 25.25 74.21875 29.59375 74.21875 
Q 40.828125 74.21875 47.359375 69.109375 
Q 53.90625 64.015625 53.90625 55.328125 
Q 53.90625 49.265625 50.4375 45.09375 
Q 46.96875 40.921875 40.578125 39.3125 
z
" id="DejaVuSans-33"/>
      </defs>
      <g transform="translate(118.572812 323.702125)scale(0.12 -0.12)">
       <use xlink:href="#DejaVuSans-2212"/>
       <use x="83.789062" xlink:href="#DejaVuSans-33"/>
       <use x="147.412109" xlink:href="#DejaVuSans-2e"/>
       <use x="179.199219" xlink:href="#DejaVuSans-33"/>
       <use x="242.822266" xlink:href="#DejaVuSans-33"/>
      </g>
     </g>
    </g>
    <g id="xtick_4">
     <g id="line2d_4">
      <g>
       <use style="stroke:#000000;stroke-width:0.8;" x="176.64" xlink:href="#m5ab4218d97" y="307.584"/>
      </g>
     </g>
     <g id="text_4">
      <!-- −2.00 -->
      <defs>
       <path d="M 19.1875 8.296875 
L 53.609375 8.296875 
L 53.609375 0 
L 7.328125 0 
L 7.328125 8.296875 
Q 12.9375 14.109375 22.625 23.890625 
Q 32.328125 33.6875 34.8125 36.53125 
Q 39.546875 41.84375 41.421875 45.53125 
Q 43.3125 49.21875 43.3125 52.78125 
Q 43.3125 58.59375 39.234375 62.25 
Q 35.15625 65.921875 28.609375 65.921875 
Q 23.96875 65.921875 18.8125 64.3125 
Q 13.671875 62.703125 7.8125 59.421875 
L 7.8125 69.390625 
Q 13.765625 71.78125 18.9375 73 
Q 24.125 74.21875 28.421875 74.21875 
Q 39.75 74.21875 46.484375 68.546875 
Q 53.21875 62.890625 53.21875 53.421875 
Q 53.21875 48.921875 51.53125 44.890625 
Q 49.859375 40.875 45.40625 35.40625 
Q 44.1875 33.984375 37.640625 27.21875 
Q 31.109375 20.453125 19.1875 8.296875 
z
" id="DejaVuSans-32"/>
      </defs>
      <g transform="translate(158.252812 323.702125)scale(0.12 -0.12)">
       <use xlink:href="#DejaVuSans-2212"/>
       <use x="83.789062" xlink:href="#DejaVuSans-32"/>
       <use x="147.412109" xlink:href="#DejaVuSans-2e"/>
       <use x="179.199219" xlink:href="#DejaVuSans-30"/>
       <use x="242.822266" xlink:href="#DejaVuSans-30"/>
      </g>
     </g>
    </g>
    <g id="xtick_5">
     <g id="line2d_5">
      <g>
       <use style="stroke:#000000;stroke-width:0.8;" x="216.32" xlink:href="#m5ab4218d97" y="307.584"/>
      </g>
     </g>
     <g id="text_5">
      <!-- −0.67 -->
      <g transform="translate(197.932812 323.702125)scale(0.12 -0.12)">
       <use xlink:href="#DejaVuSans-2212"/>
       <use x="83.789062" xlink:href="#DejaVuSans-30"/>
       <use x="147.412109" xlink:href="#DejaVuSans-2e"/>
       <use x="179.199219" xlink:href="#DejaVuSans-36"/>
       <use x="242.822266" xlink:href="#DejaVuSans-37"/>
      </g>
     </g>
    </g>
    <g id="xtick_6">
     <g id="line2d_6">
      <g>
       <use style="stroke:#000000;stroke-width:0.8;" x="256" xlink:href="#m5ab4218d97" y="307.584"/>
      </g>
     </g>
     <g id="text_6">
      <!-- 0.67 -->
      <g transform="translate(242.640625 323.702125)scale(0.12 -0.12)">
       <use xlink:href="#DejaVuSans-30"/>
       <use x="63.623047" xlink:href="#DejaVuSans-2e"/>
       <use x="95.410156" xlink:href="#DejaVuSans-36"/>
       <use x="159.033203" xlink:href="#DejaVuSans-37"/>
      </g>
     </g>
    </g>
    <g id="xtick_7">
     <g id="line2d_7">
      <g>
       <use style="stroke:#000000;stroke-width:0.8;" x="295.68" xlink:href="#m5ab4218d97" y="307.584"/>
      </g>
     </g>
     <g id="text_7">
      <!-- 2.00 -->
      <g transform="translate(282.320625 323.702125)scale(0.12 -0.12)">
       <use xlink:href="#DejaVuSans-32"/>
       <use x="63.623047" xlink:href="#DejaVuSans-2e"/>
       <use x="95.410156" xlink:href="#DejaVuSans-30"/>
       <use x="159.033203" xlink:href="#DejaVuSans-30"/>
      </g>
     </g>
    </g>
    <g id="xtick_8">
     <g id="line2d_8">
      <g>
       <use style="stroke:#000000;stroke-width:0.8;" x="335.36" xlink:href="#m5ab4218d97" y="307.584"/>
      </g>
     </g>
     <g id="text_8">
      <!-- 3.33 -->
      <g transform="translate(322.000625 323.702125)scale(0.12 -0.12)">
       <use xlink:href="#DejaVuSans-33"/>
       <use x="63.623047" xlink:href="#DejaVuSans-2e"/>
       <use x="95.410156" xlink:href="#DejaVuSans-33"/>
       <use x="159.033203" xlink:href="#DejaVuSans-33"/>
      </g>
     </g>
    </g>
    <g id="xtick_9">
     <g id="line2d_9">
      <g>
       <use style="stroke:#000000;stroke-width:0.8;" x="375.04" xlink:href="#m5ab4218d97" y="307.584"/>
      </g>
     </g>
     <g id="text_9">
      <!-- 4.67 -->
      <g transform="translate(361.680625 323.702125)scale(0.12 -0.12)">
       <use xlink:href="#DejaVuSans-34"/>
       <use x="63.623047" xlink:href="#DejaVuSans-2e"/>
       <use x="95.410156" xlink:href="#DejaVuSans-36"/>
       <use x="159.033203" xlink:href="#DejaVuSans-37"/>
      </g>
     </g>
    </g>
    <g id="xtick_10">
     <g id="line2d_10">
      <g>
       <use style="stroke:#000000;stroke-width:0.8;" x="414.72" xlink:href="#m5ab4218d97" y="307.584"/>
      </g>
     </g>
     <g id="text_10">
      <!-- 6.00 -->
      <g transform="translate(401.360625 323.702125)scale(0.12 -0.12)">
       <use xlink:href="#DejaVuSans-36"/>
       <use x="63.623047" xlink:href="#DejaVuSans-2e"/>
       <use x="95.410156" xlink:href="#DejaVuSans-30"/>
       <use x="159.033203" xlink:href="#DejaVuSans-30"/>
      </g>
     </g>
    </g>
   </g>
   <g id="matplotlib.axis_2">
    <g id="ytick_1">
     <g id="line2d_11">
      <defs>
       <path d="M 0 0 
L -3.5 0 
" id="mad1e8f069d" style="stroke:#000000;stroke-width:0.8;"/>
      </defs>
      <g>
       <use style="stroke:#000000;stroke-width:0.8;" x="57.6" xlink:href="#mad1e8f069d" y="307.584"/>
      </g>
     </g>
     <g id="text_11">
      <!-- −6.00 -->
      <g transform="translate(19.954687 311.383219)scale(0.1 -0.1)">
       <use xlink:href="#DejaVuSans-2212"/>
       <use x="83.789062" xlink:href="#DejaVuSans-36"/>
       <use x="147.412109" xlink:href="#DejaVuSans-2e"/>
       <use x="179.199219" xlink:href="#DejaVuSans-30"/>
       <use x="242.822266" xlink:href="#DejaVuSans-30"/>
      </g>
     </g>
    </g>
    <g id="ytick_2">
     <g id="line2d_12">
      <g>
       <use style="stroke:#000000;stroke-width:0.8;" x="57.6" xlink:href="#mad1e8f069d" y="278.016"/>
      </g>
     </g>
     <g id="text_12">
      <!-- −4.67 -->
      <g transform="translate(19.954687 281.815219)scale(0.1 -0.1)">
       <use xlink:href="#DejaVuSans-2212"/>
       <use x="83.789062" xlink:href="#DejaVuSans-34"/>
       <use x="147.412109" xlink:href="#DejaVuSans-2e"/>
       <use x="179.199219" xlink:href="#DejaVuSans-36"/>
       <use x="242.822266" xlink:href="#DejaVuSans-37"/>
      </g>
     </g>
    </g>
    <g id="ytick_3">
     <g id="line2d_13">
      <g>
       <use style="stroke:#000000;stroke-width:0.8;" x="57.6" xlink:href="#mad1e8f069d" y="248.448"/>
      </g>
     </g>
     <g id="text_13">
      <!-- −3.33 -->
      <g transform="translate(19.954687 252.247219)scale(0.1 -0.1)">
       <use xlink:href="#DejaVuSans-2212"/>
       <use x="83.789062" xlink:href="#DejaVuSans-33"/>
       <use x="147.412109" xlink:href="#DejaVuSans-2e"/>
       <use x="179.199219" xlink:href="#DejaVuSans-33"/>
       <use x="242.822266" xlink:href="#DejaVuSans-33"/>
      </g>
     </g>
    </g>
    <g id="ytick_4">
     <g id="line2d_14">
      <g>
       <use style="stroke:#000000;stroke-width:0.8;" x="57.6" xlink:href="#mad1e8f069d" y="218.88"/>
      </g>
     </g>
     <g id="text_14">
      <!-- −2.00 -->
      <g transform="translate(19.954687 222.679219)scale(0.1 -0.1)">
       <use xlink:href="#DejaVuSans-2212"/>
       <use x="83.789062" xlink:href="#DejaVuSans-32"/>
       <use x="147.412109" xlink:href="#DejaVuSans-2e"/>
       <use x="179.199219" xlink:href="#DejaVuSans-30"/>
       <use x="242.822266" xlink:href="#DejaVuSans-30"/>
      </g>
     </g>
    </g>
    <g id="ytick_5">
     <g id="line2d_15">
      <g>
       <use style="stroke:#000000;stroke-width:0.8;" x="57.6" xlink:href="#mad1e8f069d" y="189.312"/>
      </g>
     </g>
     <g id="text_15">
      <!-- −0.67 -->
      <g transform="translate(19.954687 193.111219)scale(0.1 -0.1)">
       <use xlink:href="#DejaVuSans-2212"/>
       <use x="83.789062" xlink:href="#DejaVuSans-30"/>
       <use x="147.412109" xlink:href="#DejaVuSans-2e"/>
       <use x="179.199219" xlink:href="#DejaVuSans-36"/>
       <use x="242.822266" xlink:href="#DejaVuSans-37"/>
      </g>
     </g>
    </g>
    <g id="ytick_6">
     <g id="line2d_16">
      <g>
       <use style="stroke:#000000;stroke-width:0.8;" x="57.6" xlink:href="#mad1e8f069d" y="159.744"/>
      </g>
     </g>
     <g id="text_16">
      <!-- 0.67 -->
      <g transform="translate(28.334375 163.543219)scale(0.1 -0.1)">
       <use xlink:href="#DejaVuSans-30"/>
       <use x="63.623047" xlink:href="#DejaVuSans-2e"/>
       <use x="95.410156" xlink:href="#DejaVuSans-36"/>
       <use x="159.033203" xlink:href="#DejaVuSans-37"/>
      </g>
     </g>
    </g>
    <g id="ytick_7">
     <g id="line2d_17">
      <g>
       <use style="stroke:#000000;stroke-width:0.8;" x="57.6" xlink:href="#mad1e8f069d" y="130.176"/>
      </g>
     </g>
     <g id="text_17">
      <!-- 2.00 -->
      <g transform="translate(28.334375 133.975219)scale(0.1 -0.1)">
       <use xlink:href="#DejaVuSans-32"/>
       <use x="63.623047" xlink:href="#DejaVuSans-2e"/>
       <use x="95.410156" xlink:href="#DejaVuSans-30"/>
       <use x="159.033203" xlink:href="#DejaVuSans-30"/>
      </g>
     </g>
    </g>
    <g id="ytick_8">
     <g id="line2d_18">
      <g>
       <use style="stroke:#000000;stroke-width:0.8;" x="57.6" xlink:href="#mad1e8f069d" y="100.608"/>
      </g>
     </g>
     <g id="text_18">
      <!-- 3.33 -->
      <g transform="translate(28.334375 104.407219)scale(0.1 -0.1)">
       <use xlink:href="#DejaVuSans-33"/>
       <use x="63.623047" xlink:href="#DejaVuSans-2e"/>
       <use x="95.410156" xlink:href="#DejaVuSans-33"/>
       <use x="159.033203" xlink:href="#DejaVuSans-33"/>
      </g>
     </g>
    </g>
    <g id="ytick_9">
     <g id="line2d_19">
      <g>
       <use style="stroke:#000000;stroke-width:0.8;" x="57.6" xlink:href="#mad1e8f069d" y="71.04"/>
      </g>
     </g>
     <g id="text_19">
      <!-- 4.67 -->
      <g transform="translate(28.334375 74.839219)scale(0.1 -0.1)">
       <use xlink:href="#DejaVuSans-34"/>
       <use x="63.623047" xlink:href="#DejaVuSans-2e"/>
       <use x="95.410156" xlink:href="#DejaVuSans-36"/>
       <use x="159.033203" xlink:href="#DejaVuSans-37"/>
      </g>
     </g>
    </g>
    <g id="ytick_10">
     <g id="line2d_20">
      <g>
       <use style="stroke:#000000;stroke-width:0.8;" x="57.6" xlink:href="#mad1e8f069d" y="41.472"/>
      </g>
     </g>
     <g id="text_20">
      <!-- 6.00 -->
      <g transform="translate(28.334375 45.271219)scale(0.1 -0.1)">
       <use xlink:href="#DejaVuSans-36"/>
       <use x="63.623047" xlink:href="#DejaVuSans-2e"/>
       <use x="95.410156" xlink:href="#DejaVuSans-30"/>
       <use x="159.033203" xlink:href="#DejaVuSans-30"/>
      </g>
     </g>
    </g>
   </g>
   <g id="patch_3">
    <path d="M 57.6 307.584 
L 57.6 41.472 
" style="fill:none;stroke:#000000;stroke-linecap:square;stroke-linejoin:miter;stroke-width:0.8;"/>
   </g>
   <g id="patch_4">
    <path d="M 414.72 307.584 
L 414.72 41.472 
" style="fill:none;stroke:#000000;stroke-linecap:square;stroke-linejoin:miter;stroke-width:0.8;"/>
   </g>
   <g id="patch_5">
    <path d="M 57.6 307.584 
L 414.72 307.584 
" style="fill:none;stroke:#000000;stroke-linecap:square;stroke-linejoin:miter;stroke-width:0.8;"/>
   </g>
   <g id="patch_6">
    <path d="M 57.6 41.472 
L 414.72 41.472 
" style="fill:none;stroke:#000000;stroke-linecap:square;stroke-linejoin:miter;stroke-width:0.8;"/>
   </g>
  </g>
 </g>
 <defs>
  <clipPath id="p929078cd5a">
   <rect height="266.112" width="357.12" x="57.6" y="41.472"/>
  </clipPath>
 </defs>
</svg>
